*******************************************************************************
                                Overrun! (1970)
*******************************************************************************

-------------------------------------------------------------------------------
                              General Information
-------------------------------------------------------------------------------
Type.................: Movie



Video Format.........: AVI
Video Bitrate........: 2329
Resolution...........: 684 x 532
Color................: 8 bit
FPS..................: 25.000
Source...............: DVDRip from Video
Original Format......: NTSC
Genre................: War
IMDb Rating..........: 3.8
Movie Information....: http://www.imdb.com/title/tt0064964/

-------------------------------------------------------------------------------
                               Post Information
-------------------------------------------------------------------------------
Posted by............: RadioResearch
Posted on............: 3/18/2013

-------------------------------------------------------------------------------
                                 Release Notes
-------------------------------------------------------------------------------
SEEDBOX SUPPORTED!

Dubbed English with hard-coded Greek subtitles.

Original Title:  I Sette di Marsa Matruh

From IMDB's fan reviews:
"If you like Italian war movies of the 60s, you'll enjoy this one. British 
soldiers are stranded behind enemy lines during a heated desert battle in WW II. 
They hook up with some beautiful (decidedly un-British looking) nurses and try 
to fight their way back to safety. There's enough desert grit, gunfire, and 
exploding tanks to keep action fans happy."

Another one of the rare Macaroni Combat films.  It's an OK film, nothing too 
great, but more likely than not, many people have never seen or heard of it.

V=9 to 9.5  A=10

Enjoy!
RadioResearch

General
Complete name                            : G:Overrun! (1970)Overrun.avi
Format                                   : AVI
Format/Info                              : Audio Video Interleave
Format profile                           : OpenDML
File size                                : 1.72 GiB
Duration                                 : 1h 45mn
Overall bit rate                         : 2 329 Kbps
Movie name                               : Movie
Writing application                      : MEncoder 5.0
Writing library                          : [= DigiArty videodll! =]

Video
ID                                       : 0
Format                                   : MPEG-4 Visual
Format profile                           : Simple@L1
Format settings, BVOP                    : No
Format settings, QPel                    : No
Format settings, GMC                     : No warppoints
Format settings, Matrix                  : Default (H.263)
Codec ID                                 : DX50
Codec ID/Hint                            : DivX 5
Duration                                 : 1h 45mn
Bit rate                                 : 2 068 Kbps
Width                                    : 684 pixels
Height                                   : 532 pixels
Display aspect ratio                     : 1.286
Frame rate                               : 25.000 fps
Color space                              : YUV
Chroma subsampling                       : 4:2:0
Bit depth                                : 8 bits
Scan type                                : Progressive
Compression mode                         : Lossy
Bits/(Pixel*Frame)                       : 0.227
Stream size                              : 1.52 GiB (89%)
Writing library                          : Lavc54.71.100

Audio
ID                                       : 1
Format                                   : AC-3
Format/Info                              : Audio Coding 3
Mode extension                           : CM (complete main)
Format settings, Endianness              : Big
Codec ID                                 : 2000
Duration                                 : 1h 45mn
Bit rate mode                            : Constant
Bit rate                                 : 256 Kbps
Channel(s)                               : 2 channels
Channel positions                        : Front: L R
Sampling rate                            : 48.0 KHz
Bit depth                                : 16 bits
Compression mode                         : Lossy
Delay relative to video                  : 16ms
Stream size                              : 193 MiB (11%)
Alignment                                : Split accross interleaves
Interleave, duration                     : 500 ms (12.50 video frames)
Interleave, preload duration             : 500 ms




-------------------------------------------------------------------------------
Generated with Cool NFO Creator - http://fly.to/coolbeans
-------------------------------------------------------------------------------
